<?xml version="1.0" standalone="no"?>
<!DOCTYPE svg PUBLIC "-//W3C//DTD SVG 1.1//EN" "http://www.w3.org/Graphics/SVG/1.1/DTD/svg11.dtd" >
<svg xmlns="http://www.w3.org/2000/svg">
<metadata>Generated by IcoMoon</metadata>
<defs>
<font id="extra" horiz-adv-x="512">
<font-face units-per-em="512" ascent="480" descent="-32" />
<missing-glyph horiz-adv-x="512" />
<glyph unicode="&#x20;" d="" horiz-adv-x="256" />
<glyph unicode="&#xe600;" d="M392.084 27.284c0-6.737 0-13.474 0-20.211s-2.695-12.127-9.431-14.821c-20.211-8.084-40.421-16.168-61.979-24.253-6.737-2.694-12.127 0-17.516 5.389-6.737 8.084-14.821 16.168-21.558 25.6-16.168 18.863-40.421 20.211-57.937 1.348-8.084-8.084-14.821-16.168-21.558-24.252-8.084-8.084-12.126-9.432-22.905-5.389-18.863 8.084-36.379 16.168-55.242 24.252-8.084 4.042-10.779 8.084-10.779 17.516 0 10.779 1.347 21.558 2.695 30.99 2.695 26.947-13.474 44.463-40.421 44.463-10.779 0-22.906-1.348-33.684-1.348-8.084 0-13.474 2.695-16.169 10.779-8.084 18.863-16.169 39.074-22.905 57.937-2.695 8.084-1.347 13.474 4.042 18.863 8.084 8.084 16.169 14.821 25.6 21.558 18.863 16.168 20.21 40.421 2.694 57.937-8.084 8.084-16.169 14.821-22.905 21.558-9.431 8.084-10.779 12.127-5.389 24.252 8.084 17.516 16.169 36.379 22.906 53.894 4.042 9.432 8.084 12.126 17.516 10.779 10.779 0 21.558-1.347 30.99-2.695 25.6-2.695 44.463 13.474 44.463 40.421-1.347 14.821-2.695 25.6-2.695 37.726 0 8.084 2.695 12.127 10.779 14.821 20.21 8.084 39.073 16.168 59.284 22.905 6.737 2.695 13.474 1.348 18.863-4.042 6.737-8.084 14.821-16.168 21.558-25.6 16.168-18.863 40.421-20.21 57.937-2.695 6.737 8.084 14.821 14.821 21.558 22.906 8.084 9.432 12.127 10.779 24.252 5.389 17.516-8.084 36.379-16.168 53.894-22.906 8.084-4.042 10.779-8.084 10.779-17.516 0-10.779-1.348-21.558-2.695-30.99-2.695-26.947 13.474-44.463 40.421-44.463 12.127 0 22.906 1.347 35.031 1.347 8.084 0 12.127-2.695 16.168-10.779 8.084-18.863 16.168-39.073 22.906-57.937 2.695-8.084 1.348-13.474-4.042-18.863-8.084-8.084-16.168-14.821-25.6-21.558-18.863-16.168-20.211-40.421-1.348-57.937 8.084-8.084 16.168-14.821 24.252-22.906 8.084-8.084 9.432-12.127 4.042-22.906-8.084-18.863-16.168-36.379-24.252-55.242-4.042-9.432-8.084-12.127-17.516-10.779-10.779 0-21.558 1.348-30.99 2.695-25.6 2.695-44.463-13.474-44.463-40.421 0-4.042 0-9.432 1.348-14.821-1.348 0 0 0 0 0zM253.305 147.2c39.074-1.348 76.8 28.295 78.147 72.758 1.348 39.073-26.947 76.8-72.758 79.495-39.073 1.347-76.8-26.947-79.495-72.758-1.347-39.074 28.294-76.8 74.106-79.495z" />
<glyph unicode="&#xe601;" d="M0 222.185l257.815 257.815 257.815-257.815-257.815-257.815-257.815 257.815z" />
<glyph unicode="&#xe602;" d="M0 224l341.334 256 341.334-256v-256l-341.334 256-341.334-256v256z" horiz-adv-x="683" />
<glyph unicode="&#xe603;" d="M448 308.211c1.684 13.473 1.684 26.947 0 38.737 0 3.369 0 6.737-1.684 10.106 0 3.368-1.684 6.737-1.684 10.106-1.684 6.737-3.368 13.474-6.737 20.211-1.684-1.684-3.368-3.369-3.368-5.053 0-3.369-1.684-3.369-1.684-5.053-6.737-8.421-11.789-15.158-18.526-23.579-18.526-23.579-37.053-45.474-57.263-69.053-1.684-3.368-6.737-5.053-10.106-5.053 0 0-1.684 0-1.684 0-18.526 1.684-37.053 3.368-53.894 6.737-6.737 0-11.789 1.684-18.526 1.684 0 0 0 0-1.684 0-1.684 1.684-5.053 3.369-5.053 5.053-6.737 23.579-15.158 47.158-21.894 70.737-1.684 3.369 0 8.421 3.369 10.106 11.79 13.474 21.895 28.632 33.684 42.106 15.158 20.211 32 38.737 48.842 60.632-5.053 1.684-8.421 3.368-11.789 3.368-38.737 3.369-74.106-5.052-102.737-26.947-5.053-3.368-10.106-8.421-15.158-13.474-1.684-1.684-1.684-1.684-3.369-3.368-6.737-6.737-11.79-13.474-16.842-20.211-30.316-43.789-37.053-90.947-20.21-141.473 0-1.684 1.684-3.369 1.684-5.053 0-1.684 1.684-3.369 1.684-5.053 0-1.684 1.684-3.369 1.684-5.053 0 0 0-1.684 0-1.684 0-1.684-1.684-5.053-3.369-6.737-8.421-10.106-16.842-20.21-25.263-30.316-8.421-10.106-16.842-20.211-25.263-30.316-8.421-10.106-16.842-20.211-25.263-30.316-25.263-30.316-48.842-58.947-72.421-89.263-1.684-1.684-1.684-3.368-3.369-5.053-1.684-1.684-1.684-3.368-3.369-5.053-1.684-1.684-1.684-3.368-3.369-5.053-1.684-1.684-1.684-5.053-3.369-6.737 0-1.684-1.684-3.368-1.684-5.053 0-1.684 0-3.368-1.684-5.053 0-1.684 0-1.684 0-3.368 0-5.053 0-10.106 0-15.158 0-5.053 1.684-8.421 3.369-11.789 0-1.684 1.684-3.368 1.684-5.053 1.684-3.368 3.369-8.421 6.737-11.789 5.053-6.737 11.79-13.474 18.526-16.842 6.737 0 8.421-1.684 10.105-3.368 1.684 0 1.684-1.684 3.368-1.684 1.684 0 1.684 0 3.368-1.684 1.684 0 1.684 0 3.368-1.684 1.684 0 1.684 0 3.368 0 5.053-1.684 11.79-1.684 16.842 0 1.684 0 1.684 0 3.368 0 1.684 0 5.052 1.684 6.737 1.684 5.052 1.684 11.79 3.368 16.842 6.737 1.684 1.684 3.368 3.368 6.737 5.053 3.368 3.368 8.421 6.737 11.79 11.789 11.79 13.474 23.579 28.632 35.368 42.106 23.579 28.632 47.158 57.263 70.737 85.894 11.79 15.158 23.579 28.632 35.369 43.789 1.684 1.684 3.368 3.368 5.053 5.053 1.684 1.684 1.684 1.684 3.368 3.368 1.684 0 1.684 1.684 3.368 1.684 1.684 0 1.684 1.684 3.368 1.684 1.684 0 3.368 1.684 5.053 1.684 1.684 0 3.368 0 5.053 0 1.684 0 3.368 0 5.053 0 77.474-10.106 151.579 48.842 163.369 131.369zM60.632 8.421c-15.158 3.368-23.579 18.526-18.526 33.684 3.368 15.158 20.21 25.263 33.684 20.211 13.474-3.368 23.579-20.211 18.526-35.368-5.052-13.474-20.21-23.579-33.684-18.526z" horiz-adv-x="450" />
<glyph unicode="&#xe604;" d="M496.64 108.8c-6.4 3.84-11.52 7.68-17.92 10.24-17.92 8.96-35.84 16.64-52.48 25.6-10.24 5.12-20.48 10.24-30.72 15.36-7.68 3.84-14.080 1.28-19.2-3.84-2.56-2.56-5.12-6.4-6.4-8.96-10.24-15.36-20.48-30.72-32-44.8-8.96-11.52-17.92-14.080-30.72-8.96-17.92 6.4-35.84 16.64-51.2 28.16-48.64 35.84-87.040 83.2-120.32 135.68-7.68 11.52-6.4 17.92 2.56 28.16 10.24 11.52 20.48 23.040 28.16 34.56 3.84 5.12 5.12 11.52 5.12 17.92 1.28 15.36-3.84 30.72-10.24 44.8-10.24 26.88-23.040 52.48-33.28 79.36-3.84 10.24-8.96 15.36-17.92 16.64-25.6 3.84-48.64-1.28-67.84-19.2-20.48-16.64-32-40.96-37.12-67.84-6.4-26.88-7.68-52.48 2.56-78.080 25.6-64 58.88-121.6 101.12-175.36 42.24-53.76 90.88-99.84 149.76-133.12 38.4-21.76 79.36-37.12 119.040-37.12 28.16 0 51.2 5.12 72.96 16.64 33.28 16.64 56.32 42.24 60.16 83.2 2.56 16.64 1.28 32-14.080 40.96z" />
<glyph unicode="&#xe605;" d="M185.557 342.55c-24.054-3.436-44.671-24.053-48.107-48.108-3.436-10.308-13.745-17.181-24.053-17.181-13.745 0-24.053 10.309-24.053 24.054 0 17.181 13.745 41.235 30.926 58.416 20.617 17.181 44.671 30.926 61.853 30.926 13.745 0 24.054-10.308 24.054-24.053-3.436-10.308-10.309-20.618-20.618-24.053zM498.255 47.034c17.181-17.181 17.181-44.671 0-65.288-17.181-17.181-44.671-17.181-65.288 0l-130.577 130.577c-30.926-20.618-65.288-30.926-106.524-30.926-106.523 0-195.866 89.343-195.866 199.302 0 109.96 89.343 199.302 199.302 199.302s199.302-89.342 199.302-199.302c0-37.798-10.308-75.597-30.926-106.523l130.577-127.141zM340.188 280.698c0 79.034-65.288 140.886-140.886 140.886s-140.886-61.853-140.886-140.886c0-79.034 65.288-140.886 140.886-140.886s140.886 61.853 140.886 140.886z" />
<glyph unicode="&#xe606;" d="M512 293.818h-186.182v186.182h-139.637v-186.182h-186.182v-139.636h186.182v-186.182h139.637v186.182h186.182z" />
<glyph unicode="&#xe607;" d="M222.798-16.25c-50.452 1.202-102.106 2.402-153.76 15.616-9.61 2.402-19.22 4.805-27.629 8.409-26.427 10.812-31.233 20.421-26.427 48.050 9.61 58.861 43.245 100.905 94.898 126.131 86.49 42.044 171.779 38.44 252.262-14.415 39.642-26.428 63.666-63.666 70.874-110.515 1.202-6.006 1.202-13.214 1.202-20.421 0-9.61-4.805-15.616-12.012-20.421-16.817-10.811-37.238-15.616-56.459-20.421-46.849-9.61-93.697-12.012-142.949-12.012zM224 238.415c-62.465 0-112.918 49.251-112.918 112.917 0 62.465 50.453 112.918 111.716 112.918 62.465 0 112.918-50.452 112.918-112.918 1.202-62.465-49.251-112.918-111.716-112.918z" horiz-adv-x="448" />
<glyph unicode="&#xe608;" d="M884.841 422.236c-15.754 15.754-31.508 31.507-48.575 48.575-13.128 13.128-22.318 13.128-34.134 0-114.216-114.215-228.431-228.431-342.646-342.646-1.313-1.313-3.938-3.938-5.252-3.938 27.569-27.569 55.139-55.139 81.395-81.395 0 0 0 0 1.313 1.313 115.528 115.528 232.369 232.369 347.898 347.897 10.503 9.19 10.503 19.692 0 30.195zM435.856 104.534c-17.067-40.697-35.446-82.707-52.513-123.405h-383.344v-13.128h387.282c1.313 0 1.313 0 2.625 0 42.010 17.067 84.021 35.446 124.718 52.513 1.313 1.313 3.938 1.313 5.251 2.625-27.569 27.569-55.139 55.139-82.707 82.707 0 0-1.313 0-1.313-1.313z" horiz-adv-x="893" />
<glyph unicode="&#xe609;" d="M384 75.045c115.32 129.735 235.445 254.665 350.765 389.205-230.64 0-461.28 0-691.92 0 115.32-129.735 225.835-259.47 341.155-389.205zM249.46 171.145c-57.66-62.465-115.321-124.93-172.98-187.395 201.81 0 403.62 0 600.625 0-52.855 57.66-105.71 124.93-158.565 187.395-4.805-4.805-9.61-9.61-9.61-9.61-38.44-43.245-86.49-96.1-124.93-134.54zM23.625-16.25c0 0 134.54 144.15 201.81 216.225-67.27 72.075-201.81 230.64-201.81 230.64v-446.865zM744.375 421.005c0 0-129.735-148.955-197.005-221.030 62.465-72.075 197.005-216.225 197.005-216.225v437.255z" horiz-adv-x="768" />
<glyph unicode="&#xe60a;" d="M315.077 480h-275.692c-23.631 0-39.385-15.754-39.385-39.385v-433.231c0-23.631 15.754-39.385 39.385-39.385h275.692c23.631 0 39.385 15.754 39.385 39.385v433.231c0 23.631-15.754 39.385-39.385 39.385zM177.231 7.385c-11.815 0-19.692 7.877-19.692 19.692s7.877 19.692 19.692 19.692c11.815 0 19.692-7.877 19.692-19.692 0-11.815-7.877-19.692-19.692-19.692zM315.077 125.538c0-23.631-15.754-39.385-39.385-39.385h-196.923c-23.631 0-39.385 15.754-39.385 39.385v236.308c0 23.631 15.754 39.385 39.385 39.385h196.923c23.631 0 39.385-15.754 39.385-39.385v-236.308z" horiz-adv-x="355" />
<glyph unicode="&#xe60b;" d="M32.167-16.25c19.22 0 38.44 0 58.861-1.202 8.409 0 13.214 2.402 19.22 8.409 62.465 62.465 126.131 124.93 188.596 187.395 3.604 3.604 7.207 6.007 13.214 3.604 56.459-13.214 117.722 10.812 147.754 58.862 43.245 67.27 25.226 153.76-42.043 198.206-50.452 33.635-123.728 30.031-169.376-9.61-43.245-37.239-58.861-84.087-46.849-140.546 1.202-4.805 0-7.207-3.603-10.812-9.61-9.61-19.22-19.22-30.031-28.83-4.805-4.805-7.208-8.409-6.006-15.617 0-18.018 0-36.037 0-56.458-16.817 0-33.635 1.201-50.453 1.201 0-15.616 0-31.233 0-48.050-15.617 0-31.233 1.201-48.050 1.201 0-16.817 0-32.434 0-49.252-16.817 0-32.434 0-49.251 1.202 0-30.031 0-57.66 0-85.288 1.201-9.61 6.006-13.214 18.019-14.415zM358.908 392.175c14.415 14.415 38.44 14.415 52.855 0 15.616-14.415 15.616-38.44 0-52.855-14.415-14.415-38.44-14.415-52.855 0-14.415 14.415-14.415 38.44 0 52.855z" horiz-adv-x="499" />
<glyph unicode="&#xe60c;" d="M242.526-32l-121.263 71.411-121.263-71.411v512h242.526v-512z" horiz-adv-x="243" />
<glyph unicode="&#xe60d;" d="M585.143 417.829v0 0zM405.943 480c-65.829 0-120.685-58.514-120.685-128 0-10.971 0-18.286 3.657-29.257-98.743 3.657-190.172 54.857-248.685 135.315-10.971-21.943-14.629-43.885-14.629-65.829 0-43.885 21.943-84.114 54.857-106.057-18.285 0-36.572 7.314-54.857 14.628 0 0 0 0 0 0 0-62.172 40.228-113.372 95.085-128-10.972-3.657-21.943-7.315-32.915-7.315-7.314 0-14.629 0-21.943 3.657 14.629-51.2 58.514-87.772 113.372-91.428-40.228-32.914-91.428-54.857-149.943-54.857-10.971 0-18.285 0-29.257 0 54.857-36.572 117.028-58.514 182.857-58.514 219.428 0 340.115 197.486 340.115 369.372 0 7.315 0 10.971 0 18.286 25.6 18.286 47.543 40.228 62.172 65.829-21.943-10.972-43.885-18.286-69.486-21.943 25.6 14.629 43.885 40.229 51.2 73.143-21.943-14.629-47.543-25.6-76.8-32.914-18.286 29.257-51.2 43.885-84.115 43.885z" horiz-adv-x="585" />
<glyph unicode="&#xe60e;" d="M512 480h-307.2c-30.72 0-51.2-20.48-51.2-51.2v-256h204.8v-51.2h51.2v-51.2h51.2v102.4h51.2c30.72 0 51.2 20.48 51.2 51.2v204.8c0 30.72-20.48 51.2-51.2 51.2zM102.4 147.2v179.2h-51.2c-30.72 0-51.2-20.48-51.2-51.2v-153.6c0-30.72 20.48-51.2 51.2-51.2h51.2v-102.4h51.2v51.2h51.2v51.2h51.2c30.72 0 51.2 20.48 51.2 51.2h-179.2c-15.36 0-25.6 10.24-25.6 25.6z" horiz-adv-x="563" />
<glyph unicode="&#xe60f;" d="M915.577 227.012l-252.988 252.988v-192.753h-662.588v-120.471h662.588v-198.776z" horiz-adv-x="916" />
<glyph unicode="&#xe610;" d="M318.951 110.688c0 2.798-8.394 2.798-11.192 2.798s-2.798 0-5.596-2.798c0-2.798 0 2.798 0-5.596v-64.35c0-8.394 0-11.192 0-13.989 0-2.798 2.798-2.798 5.596-2.798 2.798 0 8.394 0 8.394 2.798s0 8.394 0 13.989v61.552c5.596 11.192 2.798 8.394 2.798 8.394zM436.459 214.207h-341.334c-53.158 0-95.126-41.967-95.126-95.125v-55.957c0-53.159 41.967-95.125 95.126-95.125h341.334c53.159 0 95.126 41.967 95.126 95.125v55.957c0 53.159-44.765 95.125-95.125 95.125zM131.498 138.666h-16.787v-134.295h-39.169v134.295h-19.584v36.371h75.541v-36.371zM246.208 7.17h-41.967v11.192c-2.798-5.596-5.595-8.394-11.191-11.192-2.798-2.798-8.393-2.798-13.989-2.798-5.595 0-11.191 0-13.989 2.798-2.798 2.798-8.393 5.596-8.393 8.394-2.798 2.798-2.798 8.394-2.798 11.192 0 2.798 0 11.192 0 22.382v89.53h36.371v-89.53c0-11.192 0-16.787 0-19.584 0-2.798 5.595-2.798 8.393-2.798 2.798 0 8.393 0 8.393 2.798 0 2.798 0 8.394 0 19.584v86.732h39.169v-128.7zM360.918 43.541c0-11.192 0-16.787-2.798-22.382 0-5.596-5.596-8.394-8.394-13.989-5.596-2.798-11.192-2.798-16.787-2.798-5.596 0-8.394 0-13.989 2.798-2.798 2.798-13.989 5.596-16.787 8.394l-2.798-11.192h-33.574v170.666h36.371v-47.563c2.798 2.798 11.192 5.596 16.787 8.394 2.798 2.798 8.394 2.798 13.989 2.798 5.596 0 11.192 0 13.989-2.798 2.798-2.798 8.394-5.596 8.394-8.394 2.798-2.798 2.798-5.596 2.798-8.394 0-2.798 0 0 0-11.192v-64.35zM470.033 79.913h-53.159v-39.169c0-5.596 0-11.192 0-11.192 0-2.798 2.798-2.798 5.596-2.798 2.798 0 5.596 0 5.596 2.798 0 2.798 2.798 5.596 2.798 13.989v16.787h39.169v-11.192c0-8.394 0-13.989-2.798-19.584 0-5.596-2.798-8.394-8.394-13.989-2.798-5.596-8.394-8.394-13.989-11.192-2.798 0-11.192 0-19.584 0-8.394 0-13.989 0-19.584 2.798-5.596 2.798-13.989 5.596-16.787 11.192-2.798 5.596-5.596 8.394-8.394 13.989-2.798 5.596-2.798 13.989-2.798 22.382v44.765c0 11.192 2.798 11.192 5.596 19.584 2.798 5.596 8.394 11.192 16.787 16.787 8.394 2.798 13.989 5.596 22.382 5.596 11.192 0 22.382-2.798 27.978-5.596 8.394-5.596 13.989-11.192 16.787-16.787 2.798-8.394 5.596-13.989 5.596-25.18v-13.989zM428.065 110.688c0 2.798-2.798 2.798-5.596 2.798s-5.596 0-5.596-2.798c0-2.798 0 2.798 0-5.596v-11.192h11.192v11.192c0 8.394 0 5.596 0 5.596zM75.541 253.377h55.957v81.137l39.169 145.486h-53.159c-8.394-41.967-11.192-72.743-16.787-97.923 0 13.989-5.596 53.159-13.989 97.923h-53.158l41.967-145.486v-81.137zM170.667 320.524c0-16.787 0-27.978 2.798-36.371 2.798-8.394 5.595-13.989 11.191-19.585 5.595-2.798 11.191-8.393 19.584-11.191 8.393-2.798 25.18-2.798 39.169-2.798 11.191 0 16.787 2.798 25.181 5.595 8.394 2.798 16.787 8.394 22.382 13.989 5.596 5.596 8.394 13.989 11.192 22.382 2.798 8.393 2.798 19.584 2.798 36.372v44.765c0 13.989 0 22.382-2.798 27.978-2.798 5.596-5.596 11.192-11.192 19.585-5.596 5.595-11.192 11.191-19.584 13.989s-13.989 5.596-27.978 5.596c-16.787 0-36.371-2.798-47.563-8.394-8.393-5.596-13.989-13.989-19.584-25.18-2.798-8.394-5.595-22.382-5.595-39.169v-47.563zM226.623 384.875c0 8.394 0 13.989 2.798 16.787 0 2.798 2.798 2.798 5.595 2.798s8.393 0 8.393-2.798c0-2.798 2.798-8.394 2.798-16.787v-75.541c0-8.393 0-13.989-2.798-16.787 0-2.798-5.595-2.798-8.393-2.798-2.798 0-5.595 0-5.595 2.798s-2.798 8.393-2.798 16.787v75.541zM327.344 264.568c2.798-2.798 8.394-8.393 13.989-11.191 5.596-2.798 13.989-2.798 22.382-2.798 8.394 0 13.989 0 19.584 2.798 5.596 2.798 11.192 8.393 13.989 13.989v-13.989h55.957v187.454h-55.957v-128.7c0-13.989 0-25.18 0-27.978 0-2.798-2.798-2.798-8.394-2.798-2.798 0-8.394 0-8.394 2.798 0 2.798 0 11.191 0 25.18v131.498h-55.957v-128.7c0-16.787 0-25.18 0-30.776s0-11.192 2.798-16.787z" horiz-adv-x="532" />
<glyph unicode="&#xe611;" d="M512 247.32v186.182h-93.091v-46.545h-46.546v46.545h-46.546v46.546h-93.091v-46.546h-46.546v-46.545h-46.546v-46.546h-46.546v-46.545h-46.545v-46.546h-46.545v-93.091h46.545v46.546h46.545v46.546h46.546v46.546h46.546v46.546h46.546v46.546h93.091v-46.546h46.546v-46.546h46.546v-46.546h46.546v-46.546h46.546v-46.546h46.545v93.091zM418.909 200.774h-46.546v46.546h-46.546v46.546h-93.091v-46.546h-46.546v-46.546h-46.546v-46.546h-46.546v-186.182h139.637v139.637h93.091v-139.637h139.637v186.182h-46.546z" horiz-adv-x="559" />
<glyph unicode="&#xe612;" d="M117.871 275.568c-15.786 0-28.415 5.525-38.15 16.050-9.735 10.787-14.997 25.258-16.049 43.675h166.281c0 48.148-9.471 84.193-28.679 107.873-19.207 23.942-47.358 35.782-84.719 35.782-18.68 0-35.256-2.894-49.463-8.683-14.471-5.788-26.573-13.945-36.572-24.732-9.735-10.261-17.365-23.153-22.627-38.413-5.262-14.997-7.893-31.836-7.893-50.516 0-75.248 29.73-118.134 89.192-128.921l53.673 53.673c-7.367-3.683-15.786-5.788-24.995-5.788zM81.826 414.75c9.209 9.209 20.259 13.945 33.151 13.945 6.314 0 12.366-1.053 18.154-3.157 5.788-2.105 11.050-5.262 15.786-9.735 4.473-4.473 8.156-9.998 11.050-16.576 2.631-6.84 4.209-14.47 4.736-23.416h-98.927c1.316 16.575 6.578 29.731 16.049 38.939zM547.782 269.78h62.356v152.074h60.251c0 18.943 0 37.624 0 56.304h-182.857c0-18.68 0-37.361 0-56.304h60.514v-152.074zM222.060 142.175v91.56h-8.419l-36.309-39.728-35.782 39.728h-8.683v-91.56c7.893 0 15.786 0 23.942 0v40.518l19.207-20.259h2.631l19.47 20.259v-40.781c8.156 0.263 16.049 0.263 23.942 0.263zM389.394 142.175v70.512h22.364c0 7.104 0 13.945 0 20.785h-67.881c0-6.84 0-13.944 0-20.785h22.364v-70.512c7.63 0 15.523 0 23.153 0zM481.217 142.175h26.048v3.421l-17.891 28.942c23.153 15.523 16.575 58.935-19.207 58.935-13.418 0-26.837 0-39.992 0 0-30.52 0-60.777 0-91.297 7.63 0 15.523 0 23.416 0v26.837h12.103l15.523-26.837zM453.328 212.423c5.525 0 11.313 0.263 16.575 0 13.418 0 12.629-22.89 0-22.89h-16.575c0 7.367 0 15.523 0 22.89zM619.346 187.692c0 63.145-93.665 63.145-93.665 0 0-63.408 93.665-63.408 93.665 0zM549.887 187.692c0 32.888 45.78 32.888 45.78 0 0-33.151-45.78-33.151-45.78 0zM678.019 233.471c-13.418 0-27.1 0-40.255 0 0-30.52 0-60.777 0-91.297 7.63 0 15.523 0 23.416 0v23.416h16.838c43.675-0.263 43.675 67.618 0 67.881zM661.18 186.376c0 7.367 0 18.68 0 26.048 5.262 0 11.313 0.263 16.576 0 13.682 0 12.892-26.048 0-26.048h-16.576zM822.989 187.692c0 63.145-93.665 63.145-93.665 0 0-63.408 93.665-63.408 93.665 0zM799.046 187.692c0-33.151-45.78-33.151-45.78 0 0 32.625 45.78 32.625 45.78 0zM897.973 162.96h-33.151c0 38.94 0 23.153 0 70.249-7.893 0-15.523 0-23.416 0v-91.297c18.418 0 37.887 0 56.567 0 0 7.893 0 13.418 0 21.048zM230.479 55.877h-61.303v49.99c-13.945 0-22.627 0-36.309 0v-137.867c13.945 0 22.364 0 36.309 0v55.252h61.303v-55.252c13.945 0 22.364 0 36.309 0v137.866c-13.945 0-22.364 0-36.309 0v-49.99zM356.505 107.708l-62.092-134.446v-4.999h34.466l8.156 17.365h54.462l8.156-17.365h34.466v4.999l-62.092 134.446h-15.523zM348.349 15.622l15.523 36.308 16.050-36.308h-31.572zM550.677 39.827c6.577 5.525 10.788 15.523 10.788 23.942 0 23.942-19.207 42.36-42.886 42.36h-58.935v-137.866h64.46c28.152 0 42.623 19.469 42.886 43.412 0 12.103-5.262 22.364-16.313 28.152zM493.582 74.294h22.101c14.207 0 14.207-22.364 0.263-22.364h-22.364v22.364zM521.735-0.69h-28.152v23.416h27.889c14.471 0 14.471-23.416 0.263-23.416zM765.632 105.866h-102.347c0-10.524 0-20.785 0-31.572h33.941v-106.294c11.577 0 23.153 0 34.73 0v106.294h33.678c0 10.788 0 21.048 0 31.572zM825.356 107.708l-62.092-134.446v-4.999h34.466l8.156 17.365h54.462l8.156-17.365h34.466v4.999l-62.092 134.446h-15.523zM817.463 9.834l15.523 36.308 16.049-36.308h-31.572zM898.5 105.866c0-10.524 0-20.785 0-31.572h33.941v-106.294c11.577 0 23.153 0 34.73 0v106.294h33.678c0 10.524 0 21.048 0 31.572h-102.347zM598.298 75.083v-107.083h34.466v137.866h-34.466zM312.041 269.254v41.57l-44.202-41.57zM353.086 327.663c24.206-1.315 44.202-9.471 44.202-33.414 0-8.946-6.315-17.891-15.26-24.469h71.301c2.631 7.367 3.947 15.523 3.947 24.205 0 60.514-46.832 78.931-94.981 84.193-21.837 2.368-39.728 6.315-38.413 24.469 2.105 28.678 66.829 31.309 66.829-0.79 0.263 0 0.263 0 0.526 0l54.988 23.153c-24.469 80.51-183.12 72.88-181.015-23.153 1.053-52.358 35.519-70.512 87.876-74.195zM288.362 160.329c-5.788 0-10.524 2.105-13.945 6.051-3.421 3.947-5.525 9.471-5.788 16.050h61.303c0 17.628-3.421 31.046-10.524 39.728-7.104 8.683-17.365 13.155-31.31 13.155-6.841 0-12.892-1.053-18.154-3.157-5.262-2.105-9.735-5.262-13.418-9.209-3.684-3.947-6.577-8.683-8.419-14.207-1.841-5.525-2.894-11.839-2.894-18.68 0-27.889 11.051-43.675 32.888-47.622l19.733 19.733c-3.157-1.053-6.051-1.841-9.471-1.841zM274.943 211.634c3.421 3.421 7.63 5.262 12.103 5.262 2.368 0 4.473-0.263 6.577-1.053 2.105-0.789 4.209-2.105 5.788-3.683 1.579-1.579 3.157-3.683 3.947-6.051 1.053-2.368 1.579-5.262 1.841-8.683h-36.308c0.789 6.051 2.631 10.788 6.051 14.207zM948.489 142.701l19.733 19.733c-2.631-1.315-5.788-2.105-9.208-2.105-5.788 0-10.524 2.105-13.944 6.051-3.42 3.947-5.525 9.471-5.788 16.050h61.303c0 17.628-3.42 31.046-10.524 39.728-7.104 8.683-17.365 13.155-31.309 13.155-6.841 0-12.892-1.053-18.154-3.157-5.262-2.105-9.735-5.262-13.418-9.209-3.683-3.947-6.577-8.683-8.419-14.207-1.841-5.525-2.894-11.839-2.894-18.68-0.263-27.626 10.524-43.412 32.625-47.358zM945.595 211.634c3.42 3.421 7.63 5.262 12.103 5.262 2.368 0 4.473-0.263 6.577-1.053 2.105-0.789 4.21-2.105 5.788-3.683 1.578-1.579 3.157-3.683 3.947-6.051 1.053-2.368 1.578-5.262 1.841-8.683h-36.308c0.526 6.051 2.631 10.788 6.052 14.207z" horiz-adv-x="1001" />
<glyph unicode="&#xe613;" d="M204.586 480c-2.678-22.493-6.427-44.452-6.963-66.945-5.356-26.778 13.389-49.272 17.138-74.979-0.536-4.285-1.607-8.034-3.214-12.318-8.569 3.214-18.209 1.607-27.314 1.607 8.569 4.82 19.816 5.356 25.172 14.46 2.143 3.749-1.071 6.963-2.678 10.175-5.891 9.105-4.285 23.029-16.067 27.85-12.853 5.356-26.778-0.536-40.167 1.606-1.607 8.569-3.214 17.138-1.071 25.707-3.749-8.034-8.034-15.531-13.389-22.493-8.569 3.749-17.674 6.427-26.243 9.64 8.569-4.82 14.996-12.318 20.887-20.351-9.105-11.783-24.636-18.745-28.921-33.74-2.142-8.569 2.678-17.138 9.64-22.493 6.963-8.569 18.209-4.82 27.314-4.285-7.498-3.214-13.389-8.569-17.674-14.996-6.963 9.105-17.138 16.603-20.887 28.385-4.284 10.712-7.498 23.565-17.674 31.063-18.745 17.673-38.56 33.74-58.377 49.807-2.142-2.678-4.285-5.891-6.427-8.569 19.816-8.034 34.812-24.636 49.807-39.632 18.209-23.565 31.063-51.414 46.059-76.586 1.606-9.104 3.749-17.673 6.963-26.778-2.142-12.854 0.535-25.707 1.606-39.096 1.071-9.64 6.427-20.887-0.535-28.921-9.105 12.853-9.64 29.456-17.674 42.845-2.142-2.678-3.749-5.356-5.891-7.498-25.172 0.536-50.343 4.285-74.979 0.536-7.498-1.606-15.531-3.214-23.029-2.142 1.071-4.284 1.607-8.569 2.143-12.853 11.783 8.034 26.778 8.569 40.703 9.104 17.674 0.536 35.347 0 53.021-2.678 9.64-12.318 14.46-28.921 27.85-38.56-2.142-4.284-5.356-8.034-6.963-12.853-2.142-22.493 21.958-36.418 20.352-58.377-3.214-10.175-12.318-17.673-17.138-27.314-9.105-15.531-23.565-31.063-42.845-32.134 3.749-4.82 6.427-9.64 8.569-14.996 3.749 9.64 14.996 12.853 22.493 19.816 12.853 11.247 20.351 27.314 32.134 39.096 5.356-32.134 9.105-65.339 26.243-94.26 8.569-13.925 23.565-23.029 39.096-27.314 10.175-3.214 20.351 4.82 24.636 13.389 14.46 24.636 14.996 54.627 19.28 82.477 1.607 9.104 10.712 11.783 18.209 15.531 6.962-3.749 13.925-7.498 19.816-12.853 18.209-15.531 37.49-31.599 60.519-39.096 10.712-3.749 24.101 0.536 28.921 11.783 6.427 14.461 10.712 31.063 5.891 46.594-8.034 31.063-26.778 57.305-44.988 83.012 16.067-2.142 32.134-5.891 48.201-6.962 10.712 2.142 21.423 2.678 32.134 2.142-2.142 5.356-3.214 10.712-3.749 16.067-19.281-16.067-44.988-7.498-66.945-2.678-6.427 2.142-15.531 1.071-19.816 7.498-6.427 7.498-8.569 17.673-9.64 27.314-1.606 10.175-5.891 19.816-12.853 27.314-3.749 2.678-8.569 2.678-12.853 3.214 2.678 16.602-6.427 32.669-5.891 49.272 15.531 18.745 33.205 36.418 53.021 50.343 5.891 3.749 12.318 5.891 19.281 7.498-3.214 3.214-5.891 6.963-8.034 10.712-13.389-11.247-28.921-19.816-40.703-32.67-10.712-10.175-19.816-21.958-31.599-31.063-3.214-1.071-6.427-0.535-9.64-1.071 4.284-13.389 11.783-25.707 16.603-39.096l-2.678-2.678c-1.606 0-2.678 0-4.284-0.536-9.64 13.924-19.281 28.385-30.527 41.774-10.712 8.034-16.602 20.351-22.494 32.134-5.356 20.351-11.247 40.703-14.996 61.59-5.891 17.673-3.749 36.418-2.143 54.627 1.071 11.247 1.607 22.494 6.963 33.205-4.285 1.071-7.498 2.142-10.712 2.678zM210.477-32c-1.607 0-3.214 0-4.82 0.536-16.602 4.284-31.063 14.461-39.096 27.314-15.531 26.243-20.352 56.235-25.172 85.69-0.536 2.678-1.071 5.356-1.071 8.569-5.356-5.356-9.64-11.783-14.46-17.673-5.356-7.498-10.712-14.996-17.674-21.423-2.678-2.678-5.891-4.284-9.105-6.427-5.356-3.214-11.247-6.962-13.389-12.853v0 0c-2.678 6.427-5.356 11.247-8.569 14.996v0 0c20.352 0.536 34.276 17.673 42.845 32.134 2.142 3.749 4.82 7.498 7.498 11.247 3.749 4.82 7.498 10.175 9.64 16.067 0.536 10.712-4.82 19.816-10.175 28.921-5.356 9.104-11.247 18.209-10.175 29.456 1.071 2.678 2.678 5.356 4.284 8.034 1.071 1.606 1.606 3.214 2.678 4.82-8.569 5.891-13.924 14.996-18.745 23.565-2.678 4.82-5.891 10.175-9.105 14.461-12.318 2.142-25.707 2.678-42.309 2.678-3.213 0-6.427 0-10.175 0-1.071 0-1.606 0-2.678 0-13.389-0.536-26.778-1.071-38.025-9.104v0 0c-0.535 4.82-1.071 9.104-2.143 12.853v0 0c1.071 0 2.678 0 4.285 0 5.356 0 10.712 1.071 16.067 2.143 1.071 0 1.607 0.536 2.678 0.536 7.498 1.071 14.996 1.607 24.101 1.607 9.105 0 18.209-0.536 27.314-1.071 7.498-0.536 15.531-1.071 23.565-1.071 1.071 1.071 2.142 2.678 3.213 3.749 1.071 1.071 2.142 2.678 3.213 3.749v0 0c3.749-6.427 5.891-13.389 7.498-19.816 2.142-8.034 4.82-16.067 9.64-23.029 4.82 6.427 3.213 13.925 1.606 21.423-0.535 2.678-1.071 4.82-1.606 7.498 0 2.678-0.535 5.356-1.071 8.034-1.071 10.175-2.142 20.351-0.535 30.527-3.213 10.712-5.356 18.745-6.427 26.778-4.82 8.034-9.105 16.603-13.924 24.636-9.64 17.673-19.816 36.418-32.134 52.486-2.142 2.142-4.285 4.284-6.427 6.427-12.854 12.854-26.242 26.243-43.381 33.205v0 0c2.142 2.678 4.285 5.891 6.427 8.569v0 0c18.209-14.46 39.096-31.598 58.377-50.343 8.034-6.427 11.782-15.532 14.996-25.172 0.535-2.142 1.606-4.284 2.142-5.891 2.678-8.034 8.569-13.924 13.924-19.816 2.142-2.678 4.82-5.356 6.963-8.034 4.82 6.427 10.712 11.783 17.673 14.996-1.607 0-3.749-0.536-5.356-0.536-2.678-0.536-5.356-0.536-8.034-0.536-5.891 0-10.175 1.607-12.853 5.356-7.498 5.891-11.247 14.46-9.64 22.493 2.678 9.64 9.64 16.067 17.138 21.958 4.284 3.749 8.569 7.498 11.783 11.782-5.356 6.963-12.318 14.996-20.887 20.352v0c1.071-0.536 2.142-0.536 3.213-1.071 7.498-2.678 15.532-5.356 23.029-8.569 4.82 6.963 9.105 13.925 13.389 22.494v0c-1.607-8.034-0.536-16.067 1.071-24.101 0-0.536 0-1.071 0-1.606 2.143-0.536 4.285-0.536 6.427-0.536 3.214 0 6.963 0.536 10.175 0.536 3.214 0.535 6.963 0.535 10.175 0.535 5.356 0 9.105-0.535 12.853-2.142 7.498-3.214 10.175-10.175 11.782-17.138 1.071-3.749 2.143-7.498 4.285-10.712 0.536-0.536 0.536-1.071 1.071-2.143 1.607-2.678 3.214-5.356 1.607-8.569-3.749-6.427-10.175-8.569-16.067-10.712-3.214-1.071-5.891-2.143-9.105-3.749 2.143 0 4.285 0 6.427 0 2.143 0 4.82 0 6.963 0 5.356 0 9.64-0.535 13.389-2.142 0 1.071 0.536 1.607 0.536 2.678 1.071 3.214 2.143 6.427 2.143 9.64-1.607 9.64-5.356 19.281-8.569 28.385-5.891 14.996-11.782 29.992-8.569 46.594 0.536 17.138 2.678 34.276 5.356 51.414 0.536 5.356 1.607 10.712 2.143 15.531v0 0c1.607-0.536 3.749-0.536 5.356-1.071 1.071-0.535 2.678-0.535 4.285-1.071v0 0c-4.285-9.105-5.356-18.745-6.427-28.385 0-1.607-0.536-3.214-0.536-4.82v-1.607c-1.607-17.673-3.214-35.883 2.143-53.021 2.678-14.46 6.427-28.92 10.175-42.845 1.607-6.427 3.214-12.853 4.82-18.745 0.536-0.536 0.536-1.071 1.071-2.142 5.356-11.247 11.247-23.030 21.423-30.527 9.64-11.783 18.745-24.636 27.314-36.954 1.071-1.607 2.142-3.214 3.214-4.82 0.536 0 1.606 0 2.142 0 0.536 0 1.071 0 2.142 0l2.678 2.678c-2.142 5.356-4.82 11.247-7.498 16.602-3.214 6.963-6.962 14.461-9.64 22.494v0 0c1.071 0 1.606 0 2.678 0 2.142 0 4.82 0 6.962 1.071 6.962 5.356 13.389 12.318 19.281 18.745 3.749 4.284 8.034 8.569 12.318 12.853 7.498 8.034 16.067 14.461 24.636 20.352 5.356 3.749 10.712 8.034 16.067 12.318v0 0c2.678-4.284 5.356-7.498 8.034-10.711v0 0c-8.034-2.143-14.461-4.285-19.281-7.498-17.138-11.782-34.276-27.849-53.021-50.343 0-7.498 1.606-14.996 3.214-21.958 2.142-8.569 4.284-17.674 2.678-27.314 1.071 0 1.606 0 2.678-0.536 3.749-0.536 7.498-1.071 10.175-2.678 6.962-6.963 11.783-16.603 12.853-27.314 1.071-9.104 3.214-19.816 9.64-27.314 3.214-4.284 8.034-5.356 13.389-5.891 2.142-0.536 4.284-0.536 6.427-1.606 1.606-0.536 3.749-1.071 5.356-1.071 10.712-2.678 21.958-5.356 32.67-5.356 11.247 0 20.887 3.214 28.385 9.104v0 0c0.536-5.356 1.606-10.712 3.749-16.067v0 0c-2.142 0-4.82 0-6.962 0-8.569 0-17.138-1.071-25.171-2.678-9.104 0.536-18.745 2.142-27.314 3.749-6.962 1.071-13.925 2.142-20.351 3.214v0c18.209-25.707 36.418-51.95 44.988-83.012 4.284-12.853 2.678-28.385-5.891-46.594-3.214-8.034-11.783-13.389-20.887-13.389-2.678 0-5.356 0.536-8.034 1.606-23.029 6.962-42.31 23.029-60.519 38.56v0c-5.891 5.356-12.853 9.64-19.281 12.853-1.071-0.536-1.606-0.536-2.678-1.071-6.962-3.214-14.46-6.427-15.531-13.925-1.071-5.891-1.607-11.783-2.143-17.673-2.678-21.958-5.356-44.988-17.138-64.803-2.143-5.891-10.175-12.853-18.745-12.853zM140.318 90.109v0c0.536-3.214 1.071-5.891 1.607-8.569 4.82-29.456 9.64-59.447 25.172-85.69 8.034-12.853 22.494-23.029 39.096-27.314 1.607-0.535 3.214-0.535 4.82-0.535 8.569 0 16.067 6.962 19.816 13.925 11.247 19.816 14.46 42.31 17.138 64.803 0.536 5.891 1.607 11.783 2.143 17.673 1.607 8.034 9.104 11.247 15.531 14.461 1.071 0.536 1.606 0.536 2.678 1.071v0 0c6.427-3.214 13.389-6.962 19.816-12.853v0c18.209-15.531 37.49-31.599 60.519-38.56 2.678-1.071 5.356-1.606 8.034-1.606 9.104 0 17.673 5.356 20.887 12.853 8.034 18.209 10.175 33.74 5.891 46.594-8.034 30.527-26.778 57.305-44.988 83.012v0.536c6.962-1.071 13.925-2.142 20.887-3.214 9.104-1.606 18.209-3.214 27.314-3.749 8.569 1.606 17.138 2.678 25.171 2.678 2.142 0 4.82 0 6.962 0-2.142 5.356-3.214 10.175-3.749 15.531-7.498-6.427-17.138-9.104-28.385-9.104-10.712 0-21.958 2.678-32.669 5.356-2.142 0.536-3.749 1.071-5.356 1.071-2.142 0.536-4.284 1.071-6.427 1.606-4.82 1.071-10.175 1.606-13.389 5.891-6.427 7.498-8.569 18.209-9.64 27.314-1.606 10.175-5.891 19.816-12.853 27.314-3.214 2.143-6.962 2.678-10.175 2.678-1.071 0-1.606 0-2.678 0.536v0 0c1.606 9.105-0.536 18.209-2.678 27.314-1.606 6.962-3.749 14.461-3.214 21.958v0 0c18.745 22.494 35.883 38.561 53.021 50.343 4.82 3.214 11.247 5.891 19.281 7.498-3.214 3.214-5.356 6.427-8.034 10.712-5.356-4.284-10.712-8.569-16.067-12.318-8.569-5.891-17.673-12.318-24.636-20.352-4.284-3.749-8.569-8.569-12.318-12.318-5.891-6.427-12.318-13.389-19.281-18.745-2.142-0.535-4.82-1.071-6.962-1.071-1.071 0-1.606 0-2.678 0 2.678-7.498 5.891-14.996 9.64-21.958 2.678-5.356 5.356-10.712 7.498-16.602v0 0l-2.678-2.678c-0.536 0-1.606 0-2.142 0-0.536 0-1.606 0-2.142 0v0 0c-1.071 1.606-2.142 3.214-3.214 4.82-8.569 12.318-17.673 25.171-27.314 36.954-10.175 7.498-16.067 19.28-21.422 30.527-0.536 0.536-0.536 1.071-1.071 2.142-1.607 6.427-3.214 12.854-4.82 19.281-3.749 13.925-7.498 28.385-10.175 42.845-5.891 17.138-3.749 35.348-2.143 53.021v1.607c0 1.606 0.536 3.213 0.536 4.82 1.071 9.64 2.143 19.28 6.427 28.385-1.607 0.536-2.678 0.536-3.749 1.071-2.143 0.536-3.749 1.071-5.356 1.071-0.536-5.356-1.607-10.712-2.143-15.531-2.143-16.603-4.82-34.276-5.356-51.414-3.214-16.602 2.678-31.598 8.569-46.058 3.749-9.105 7.498-18.745 8.569-28.921 0-3.214-1.071-6.427-2.143-9.64 0-1.071-0.536-1.607-0.536-2.678v0 0c-3.749 1.607-8.034 2.142-13.389 2.142-2.143 0-4.82 0-6.963 0-2.143 0-4.82 0-6.963 0v0 0c2.678 1.607 5.891 2.678 9.105 3.749 6.427 2.143 12.853 4.284 16.067 10.712 1.607 3.214 0 5.891-1.607 8.569-0.536 0.536-0.536 1.071-1.071 2.142-2.143 3.214-3.214 6.962-4.285 10.712-2.143 6.962-4.285 13.924-11.782 17.138-3.749 1.606-8.034 2.142-12.853 2.142-3.214 0-6.963-0.536-10.175-0.536-6.427-3.749-10.175-3.749-13.389-3.749-2.143 0-4.82 0-6.427 0.536v0 0c0 0.536 0 1.071-0.536 1.607-1.071 8.034-2.678 16.067-1.071 23.565-4.285-8.034-8.034-15.531-12.853-21.958v0 0c-7.498 3.214-15.531 5.891-23.029 8.569-1.071 0.536-1.606 0.536-2.678 1.071 8.569-5.356 14.996-12.853 20.352-19.816v0 0c-3.213-4.285-7.498-8.034-11.782-11.783-6.963-5.891-14.46-12.318-17.138-21.958-2.142-8.034 1.606-16.603 9.105-22.493 3.213-3.749 6.963-5.356 12.853-5.356 2.678 0 5.356 0.535 8.034 0.535 2.143 0 4.285 0.536 5.891 0.536v0c-7.498-3.214-13.389-8.569-17.674-14.996v0 0c-2.142 2.678-4.82 5.356-6.963 8.034-5.356 5.891-11.247 12.318-13.924 19.816-1.071 2.143-1.606 4.285-2.142 5.891-3.749 9.104-6.963 18.745-14.996 25.171-19.281 18.745-40.167 35.883-58.377 50.343-2.142-2.678-4.285-5.891-5.891-8.569 17.138-6.962 30.527-19.816 43.381-33.205 2.142-2.142 4.284-4.284 6.427-6.427 12.853-16.067 22.493-34.812 32.134-52.486 4.284-8.034 9.105-16.603 13.924-24.636 1.071-8.034 3.213-16.067 6.963-26.778v0 0c-1.606-10.176-0.535-20.887 0.535-30.527 0.535-2.678 0.535-5.356 1.071-8.034 0.535-2.678 1.071-4.82 1.606-7.498 1.606-7.498 3.213-15.531-1.606-21.958v0 0c-5.356 6.962-7.498 14.996-10.175 23.029-2.142 6.427-4.284 13.389-7.498 19.816-1.071-1.071-2.142-2.678-3.213-3.749-1.071-1.071-2.142-2.678-3.213-3.749v0 0c-8.034 0-16.067 0.536-23.565 1.071-9.105 0.536-18.209 1.071-27.314 1.071-9.105 0-17.138-0.536-24.101-1.607-1.071 0-1.607-0.535-2.678-0.535-5.355-1.071-10.711-2.142-16.067-2.142-1.607 0-2.678 0-3.749 0 0.535-3.749 1.607-8.034 2.143-12.853 11.247 7.498 24.636 8.034 38.025 9.104 1.071 0 1.606 0 2.678 0 3.749 0 6.962 0 10.175 0 16.602 0 29.992-1.071 42.309-3.214v0 0c3.749-4.284 6.427-9.64 9.105-14.461 4.82-8.569 10.175-17.673 18.745-23.565v0 0c-1.071-1.606-1.606-3.214-2.678-4.82-1.606-2.678-3.213-5.356-4.284-8.034-1.071-11.247 4.82-20.351 10.175-29.456 5.356-9.104 11.247-18.209 10.175-28.921-2.143-5.891-5.891-11.247-9.64-16.067-2.678-3.749-5.356-6.962-7.498-11.247-8.569-13.925-22.493-31.063-42.845-32.134 3.213-3.749 5.891-8.569 8.569-14.996 2.678 6.427 8.034 9.64 13.389 12.853 3.213 2.142 6.427 3.749 9.105 6.427 6.963 6.427 12.318 13.925 17.674 21.423 4.284 6.962 8.569 13.389 13.925 18.745v0z" horiz-adv-x="419" />
</font>
</defs>
</svg>
